<svg version="1" xmlns="http://www.w3.org/2000/svg" width="773.333" height="773.333" viewBox="0 0 580.000000 580.000000"><path d="M100 181.7c0 .6-.9 1-2 .8-2.6-.5-12 2.3-12 3.5 0 .6-.6 1-1.4 1-2 0-7.5 6.8-10.5 13-2.5 5.3-2.6 6.2-2.9 27.9-.3 23.2.3 28.6 3.9 35.9 3.3 6.8 10.8 13.5 16.9 15 3.4.8 34.9.7 39.3-.1 6.9-1.4 15.6-9.9 18.7-18.2 2.1-5.5 2.3-7.9 2.5-27.5.2-22.6-.5-28.4-4.3-35.5-2.7-5.3-6.2-8.8-11.8-12.1-4.5-2.7-5.2-2.8-19.8-2.8-8.8-.1-15.4-.5-15.8-1.1-.5-.6-.8-.6-.8.2zM175.9 183.6c-5.4 1.6-12.7 8.1-15.7 14-3.3 6.7-4.1 13.2-4.1 33.9.1 19.9.8 26.3 3.7 32 3 6 10.2 13.2 13.9 14 1 .2 2.9.7 4.3 1.2s10.4.9 20 .8c15.4-.1 18-.4 22-2.2 8.3-3.9 14.4-12 16.4-22.1 1.3-6.3 1.4-43.5.2-49.2-2.1-9.2-9-18.1-17.1-21.9-4.2-2-37.2-2.3-43.6-.5zM263 184.2c-1.1.4-2 .5-2 .1 0-.3-.8.1-1.8 1-1 1-2.1 1.5-2.4 1.2-.8-.9-9.4 8-11.3 11.7-3.9 7.6-4.5 12.5-4.2 35.3.2 12.1.6 23 1 24.2 2.2 8.1 9.1 17.4 14.7 19.9 7.1 3.2 8.5 3.4 25.8 3 17.5-.4 18.8-.5 22.7-2.1 2.9-1.3 7.8-5.6 11-9.7 1.2-1.5 4-8.1 5.1-11.8 1.1-3.6 1.2-42.6.1-48.4-1.1-6.2-4.6-13.1-8.7-17.3-2.9-3-10.2-7.4-11.8-7.2-.4.1-.9 0-1.2-.1-1.3-.6-35.3-.4-37 .2zM349.8 184.1c-.6.4-1.8.5-2.6.2s-1.7-.2-2.1.3c-.3.5-2.2 1.7-4.2 2.7-4.2 2.1-9.8 9.2-12.4 15.7-1.6 3.8-1.9 7.8-2.1 26.5-.3 22.7.3 28 3.7 35.2 2.3 4.7 10.7 13.6 12 12.7.5-.3.9 0 .9.5 0 .6.3 1 .8.9.4-.1 1.9.4 3.4 1 2.7 1.1 35.5 1.5 37.3.4.5-.3 1.9-.7 3.2-.8 3.2-.4 9.3-4.9 13-9.8 5.9-7.8 6.6-11.6 6.8-37.1.2-25.7-.6-29.8-6.9-38.1-2.9-3.9-8.5-8.6-10.3-8.6-.4 0-1.7-.5-2.8-1.1-2.2-1.2-35.8-1.7-37.7-.6zM432.6 184.1c-1.5.4-3.4 1.4-4.3 2.1-.9.7-1.8 1.1-2 .8-.9-1.4-9 8.3-11.7 14l-3 6.5-.1 23.5c0 20.2.3 24.3 1.9 29 2.4 7.5 7.8 14.3 14 17.7 5 2.7 5.4 2.8 22.6 3 16.9.2 26-.8 26-2.9 0-.5.4-.7.8-.4 1.2.7 7.6-5.4 10.5-9.9 4.7-7.4 5.5-12.6 5.6-34.7 0-19.7-.7-26.6-3.1-31.8-2.8-5.8-8.3-12-13.2-14.6-5-2.8-5.4-2.8-23.2-2.9-10 0-19.4.2-20.8.6zM26.1 317.2c-4.3 11.4-16.9 51.1-16.5 52.2 1.2 3.2 3.5.9 5.7-5.7l2.3-7.1 9.7-.1c5.4 0 10.1.1 10.6.4.4.4 1.9 3.6 3.2 7.3 2 5.6 2.6 6.5 3.8 5.5 1.2-1 1.3-.9.6.3-.6 1.2-.5 1.3.5.3 1.1-1.1-.1-5.6-6.9-26-8.6-25.9-9.9-29.3-11.3-29.3-.5 0-1.2 1-1.7 2.2zm9.3 30.3l1.3 4-8.1-.1c-4.5-.1-8.4-.2-8.7-.3-.4-.1 4.7-16.3 7.7-24.1.5-1.3 3.4 6.4 7.8 20.5zM54.6 315.7c-.4.4-3.1.8-5.9.9-7.5.2-7.5.2-7 2.7.4 2.1.9 2.2 8.1 2.2h7.7v24c0 23.3.1 24 2 24 2.2 0 2 3.2 2.4-42.6l.1-5.5 7.4.1c6.7.2 7.5 0 8-1.9.6-2.5-.9-3.6-4.2-3-1.3.3-3.1-.1-4-.8-.9-.7-1.3-.8-1-.3.4.7-1.7 1.1-6.2 1.1-3.8 0-6.6-.4-6.4-.8.6-1 0-1-1-.1zM92.3 315.7c.4.6-1.7.9-5.8.8l-6.5-.2v26.9c0 17.7.3 26.7 1 26.3.6-.3 1-.1 1 .5s.5.8 1.2.4c1.7-1.1 6.8-1 6.8 0 0 .6.5.5 1.1-.1.7-.7 2-.8 3.4-.3 1.2.5 2.8.4 3.6-.1 1.8-1.1 3.2-1.1 2.4 0-.3.6.7.6 2.7 0 1.9-.5 3.4-.5 3.6 0 .2.5 1.2.7 2.2.4 1.4-.4 2-1.4 2-3.2v-2.6l-13 .1c-15 .2-13.9 1.1-13.8-10.9 0-5.8.3-6.9 2.1-7.9 1.5-.8 2.2-.8 2.5 0 .2.6 1 .8 1.9.5.8-.3 3.1-.6 5.2-.7 2.9-.1 3.7-.5 3.9-2.4.4-2.4.3-2.4-10.4-2.4h-5.2l.2-9.7.1-9.6h12.3c12.1.1 12.2.1 12.2-2.2 0-1.4-.6-2.3-1.5-2.3-.8 0-1.5-.6-1.5-1.3 0-.8-.3-.8-.8-.2-.9 1.3-10.2 1.3-12.1.1-.9-.6-1.2-.5-.8.1zM180.3 315.5c.4.7-3.6 1.1-11.6 1h-12.2V342c-.1 14 .1 26.3.3 27.2.3 1.3.9 1.5 2.8.8 1.6-.6 2.4-.6 2.4.1 0 .6.5.7 1.2.3 1.7-1.1 6.8-1 6.8 0 0 .6.5.5 1.1-.1.7-.7 2-.8 3.4-.3 1.2.5 2.8.4 3.6-.1 1.8-1.1 3.2-1.1 2.4 0-.3.6.6.7 2.2.2 1.6-.4 3.4-.6 4.1-.4.6.3 1.2-.2 1.2-1 0-4-.6-4.2-14-4.1-10.5.2-13-.1-13.1-1.2 0-.8-.1-3-.1-4.9 0-11.5.2-12.3 2.2-12.8 1.1-.3 2 0 2 .6 0 .8.3.8.8.2.4-.6 3-1 5.7-1 4.5 0 5-.2 5.1-2.3.1-2.5.3-2.5-8.8-2.3-6.6.1-6.8 0-6.9-2.4-.3-9.9-.1-15.6.5-16.3.4-.4 5.3-.8 10.9-.8 5.6-.1 11-.2 11.9-.3 2.2-.1 2-4.1-.2-4.1-.9 0-2.2-.6-2.9-1.3-.8-.6-1.1-.7-.8-.2zM191.4 315.8c.4.7.3 1.2-.3 1.2s-.9 9.4-.8 26.2c.2 25.6.3 26.3 2.2 26.3 1.9 0 2-.7 2-10-.1-5.5.3-10.3.8-10.6.5-.4 3-.5 5.6-.2 5.6.5 7.5 2.3 12.5 11.8 4.5 8.3 4.5 8.4 8 9.1 2.4.4 2.6.2 2.4-2.5-.1-1.8-.7-2.7-1.4-2.4-.7.3-3.2-3.2-6-8.3-3.7-6.7-4.4-8.9-3.3-9.3 2.9-.9 6.8-6.3 7.7-10.7 1-4.8.2-10.4-1.9-13.2-4.1-5.2-7.2-6.6-15.1-6.6-3 0-4.4-.4-4-1.1.4-.7.1-.7-.9.1-1.7 1.2-4.8 1.2-6.8 0-1-.6-1.2-.5-.7.2zm19.5 7.1c5.6 2.4 7.6 9.2 4.6 15.2-2 3.9-5 4.9-13.9 4.9h-7.2l.2-10.3c.1-5.6.2-10.5.3-10.8.2-1.1 12.7-.3 16 1zM263.9 315.8c-3.7 1.1-10.6 4.8-12.2 6.7-1 1.1-3 4.5-4.5 7.5-3.5 7.3-3.7 19-.4 26.2 2.5 5.6 8 11.5 11.6 12.4 1.4.3 2.6.9 2.6 1.3 0 1.4 10.7.3 14-1.4 5.7-2.8 7.1-4.5 5.9-6.6-1-1.9-1.1-1.8-5.3.6-2.3 1.4-4.6 2.2-4.9 1.8-.4-.3-.7-.2-.7.4 0 2-8 .4-12.2-2.4-5.7-3.9-9-10.6-9.1-18.6-.1-12.5 7.9-22.7 17.7-22.7 3.8 0 11.6 3.5 11.6 5.1 0 .8.7.6 1.9-.5 1.1-1 1.7-2.4 1.4-3.1-.9-2.5-6.6-5.4-11-5.7-.7-.1-1.3-.5-1.3-.9 0-.8-2.5-.8-5.1-.1zM299.9 315.8c-.9.1-2.2 2.2-2.9 4.5-.8 2.3-4.6 14.1-8.7 26.2-4 12-7.3 22.3-7.3 22.7 0 .4 1.2.8 2.7.8 1.4 0 2.3-.3 2-.7-.4-.3-.3-1.1.2-1.7.4-.6 1.4-3.2 2.1-5.8.7-2.6 1.7-4.8 2.4-5 .6-.2 5.4-.4 10.6-.3h9.5l2.5 7c2 5.5 2.9 7 4.3 6.7.9-.2 1.7-.9 1.7-1.5 0-.7-3.9-12.9-8.7-27.2-7-20.7-9.1-26-10.4-25.7zm8 35.2c-.5.3-3.5.5-6.6.4-10.9-.3-10.5-.2-9.5-2.2.5-.9 2.4-6 4.1-11.2 1.8-5.2 3.4-10.2 3.7-11 .3-.8 2.5 4.1 4.8 11 2.4 6.9 3.9 12.7 3.5 13zM364.4 315.8c.4.7-.7.9-3.4.7-4.7-.4-4.2-4.2-4.2 30.3 0 12.8.2 23.6.6 23.9.3.4.6.1.6-.5s.7-.9 1.5-.6c1.3.5 1.5-.7 1.5-7.5 0-7.4.2-8.1 2-8.2 1.1 0 5-.1 8.8-.1 3.7 0 6.9-.4 7.2-.8.3-.5 1.4-1 2.5-1.2 4.8-.8 9-10.3 8.2-18.6-1-10.9-6.5-16.3-16.9-16.6-3.5-.1-6.9-.5-7.7-1-.9-.6-1.2-.5-.7.2zm14.4 7.1c6.1 2.5 8.8 12.5 5.2 19.1-3 5.6-5.7 6.8-15.2 6.7H361v-13.3c0-9.7.3-13.3 1.3-13.7 2.5-.8 13.5 0 16.5 1.2zM407.6 315.8c-.4.4-4.2.7-8.4.7h-7.7V343c.1 20.2.4 26.4 1.3 26.2.7-.1 1.2.3 1.2 1 0 .9.3.9 1.1.1.7-.7 2-.8 3.4-.3 1.2.5 2.8.4 3.6-.1 1.8-1.1 3.2-1.1 2.4 0-.3.6.7.6 2.7 0 2.2-.6 3.4-.5 3.9.2.5.8 1.2.8 2.7 0 2.5-1.3 3.5-1.4 2.7-.2-.3.6.6.6 2.4.1 1.6-.4 3.2-.6 3.5-.2.3.3.6-.7.6-2.1 0-3.1.8-2.9-15.7-2.9l-11.3.1-.1-5.2c-.1-7.1.2-13 .8-14 .2-.4 1.2-.3 2.2.3 1 .5 2.1.6 2.5.3 1.1-1.1 3.5-1.2 4.2-.2.3.5 1.1.6 1.7.2.7-.4 1.9-.8 2.7-.8.8 0 1.5-1 1.6-2.3.1-2-.4-2.2-4.5-2.3-2.5-.1-6.1-.1-7.8-.1-2.5.1-3.3-.3-3.4-1.6-.1-2.7-.1-11.4 0-14.7l.1-3h24.5V319c0-2.3-.4-2.5-5-2.5-2.8 0-5.5-.4-6.1-.7-.6-.4-1.4-.4-1.8 0zM425.5 316.2c-.3.7-.4 13-.3 27.3.3 25.2.4 26 2.3 26.3 2 .3 2-.2 1.9-20.5 0-11.4.2-21.2.4-21.6.2-.5 1 .2 1.6 1.5.7 1.3 6.3 11.2 12.4 22 15.5 27.2 15.2 27.4 15.2-7.3 0-21.4-.3-26.8-1.3-27.2-.8-.3-1.8-.2-2.3.1-.6.4-1 9.3-.9 21.4 0 11.5-.2 20.8-.6 20.8-.3 0-1.3-1.5-2.2-3.3-.9-1.7-2.7-5-3.9-7.2-1.3-2.2-5.8-10.2-10.1-17.7-7.5-13.2-11.1-17.5-12.2-14.6zM486.6 315.8c-.2.4-6.1.7-13 .7-12.5-.1-12.6-.1-12.6 2.2 0 2.5-.1 2.5 8 2.8 3 .1 6.1.3 6.8.4.9.1 1.2 5.8 1.2 24.7 0 20.5.2 24.5 1.3 23.5.8-.6 1.7-.8 2-.4.8.7.8 1.1 1-27.2l.2-21 7.8.1c7.3 0 7.7-.1 7.7-2.2 0-2.6-1.3-3.2-6.2-2.9-2.1.2-3.5-.1-3.2-.6.3-.5.3-.9 0-.9s-.7.4-1 .8zM532.3 315.5c.4.7-3.6 1.1-11.6 1h-12.2V343l.1 26.5 2.2-.2c1.3-.2 2.1.1 1.7.6-.3.6.7.6 2.7 0 2.2-.6 3.4-.5 3.9.2.5.8 1.2.8 2.7 0 2.5-1.3 3.5-1.4 2.7-.2-.3.6.6.6 2.5.1s3-.5 3 .1.6.7 1.2.3c.7-.5 3-.8 5-.7 3.5.1 3.8-.1 3.6-2.5l-.2-2.7-13.3.1-13.3.2v-9.4c0-5.2.3-9.4.8-9.5 5.2-.4 9.2-.2 9.2.6 0 .7.3.7.8 0 .4-.6 1.6-1 2.6-1 1.2 0 2-.8 2.2-2.3.4-2.4.2-2.5-9.8-2.2l-5.8.1V321.4l12 .1c6.6.1 12-.1 12.1-.4 0-.3.2-1.4.4-2.4.2-1.1-.3-1.7-1.4-1.7-.9 0-2.3-.6-3-1.3-.8-.6-1.1-.7-.8-.2zM543.4 315.8c.4.7.3 1.2-.3 1.2-1.6 0-1.2 51.7.4 53 2.2 1.8 2.9-.8 3.1-10.5.1-5 .2-9.5.3-10.2.2-1.7 10.1-.6 12.3 1.4 1 .9 3.8 5.2 6.1 9.6 2.3 4.4 5 8.2 6 8.5.9.2 1.7.9 1.7 1.5s.7.4 1.6-.5c1.7-1.6 1.1-6-.7-5.5-.8.2-9.9-15.3-9.9-16.8 0-.3.5-.5 1-.5.6 0 2.2-1 3.5-2.3 6-5.7 6.6-16.8 1.3-22.9-2.8-3.1-5.9-4.8-9-4.8-1.3 0-3-.6-3.7-1.3-.8-.6-1.1-.7-.8-.1.7 1.3-10.1 1.3-12.2 0-1-.6-1.2-.5-.7.2zm20.4 7.6c5.6 2.9 7 10.9 2.8 16.1-2 2.4-3.2 3-8.2 3.5-3.3.3-7.3.4-8.9.2l-3-.3.1-10.2c.1-5.6.2-10.5.3-10.8.2-1.3 13.8-.1 16.9 1.5zM113.9 317.8c0 1-.1 12.9-.1 26.7l-.1 25 5.2.2c2.9.1 5.9.4 6.7.7.8.3 1.4 0 1.4-.7 0-.9.2-.9.8 0 .5.8 1.3.9 2.2.3 1.9-1.2 3.3-1.3 2.5-.1-.3.6.7.6 2.7 0 2.2-.6 3.4-.5 3.9.2.5.8 1.2.8 2.6 0 1.1-.5 2.3-.7 2.7-.4.3.3.6-.7.6-2.3v-2.9l-13.2.1-13.3.1-.5-24c-.5-21.9-.7-24-2.2-24.3-1.1-.1-1.8.4-1.9 1.4zM147.5 342.4c-.1 19.9.2 26.4 1.2 27.4.9.9 1.3 1 1.3.2 0-.6.4-.9.9-.6.5.3.9-11 .9-25.9 0-14.6-.3-26.5-.6-26.6-.4 0-1.4-.2-2.2-.4-1.3-.2-1.5 3.1-1.5 25.9zM320.9 319.9c-.4 18.4 0 49.5.6 49.3.4-.2 1.1.2 1.6.9 1.3 2.2 1.8-.7 2.1-11.6l.3-10 5.5.1c6.2.2 7.5 1.3 12.4 11.1 3.6 7 6.3 10.3 8.7 10.3 2.5 0 2.9-4.2.6-5.5-1.1-.6-3.2-3.5-4.9-6.5-1.6-3-3.6-6.5-4.3-7.6-1.4-2.2-.4-4.4 2-4.4.5 0 2.1-1.7 3.5-3.8 3.4-5 3.6-14.6.4-18.9-3.9-5.2-7.6-6.5-18.5-6.8l-9.9-.2-.1 3.6zm18.1 2.5c0 .5.3.6.6.3.4-.4 1.9.1 3.4 1 6.2 3.6 5.7 15.3-.7 18.2-1.3.6-5.7 1.1-9.8 1.1H325v-10.4c0-6.9.4-10.6 1.1-10.8 2.4-.8 12.9-.3 12.9.6zM500.4 316.8c-.6.4-1 11.3-.9 26.5 0 23.1.2 25.9 1.7 26.8 1.2.7 1.8.5 2.2-.8.2-1 .5-13.1.5-27-.1-25.2-.4-27.6-3.5-25.5zM167 394.6c0 4.5.4 7.3.9 6.9.6-.3.9-2.8.7-5.5-.2-2.7.1-4.7.5-4.4.5.3.9.9.9 1.5 0 .5 1.3 3 3 5.7 3.2 5.1 3.2 5.2 3.2-4.3 0-7.2-.5-8.1-1.1-2l-.6 6-2.9-5.8c-1.5-3.1-3.2-5.7-3.7-5.7s-.9 3.4-.9 7.6zM180.1 388.7c-1.3 1.4-1.7 4.4-1.3 9.9.3 2.9 4.6 4.8 7.2 3.1 3-1.8 4.2-7.2 2.5-11.3-1.1-2.7-1.9-3.4-4.2-3.4-1.5.1-3.4.8-4.2 1.7zm6 .2c1.2.2 2 5.3 1.4 8.2-.8 3.6-4.3 4.9-6.2 2.3-2.7-3.7-.8-11.5 2.6-10.9.9.2 1.9.4 2.2.4zM190 388.1c0 .6.7.9 1.5.5 1.6-.6 1.6-.4 2 7.4.3 7.2.8 7 1.4-.5.5-5.9.9-7 2.4-6.7.9.2 1.7-.2 1.7-.8 0-.5-2-1-4.5-1-2.6 0-4.5.5-4.5 1.1zM201.3 388.2c-1 1.7-1.1 13.8-.1 13.8.4 0 .8-1.3.8-2.9 0-4 2.7-4.8 3.5-1.1 1.1 5.1 2 4.1 2-2.3 0-6.9-.7-8.7-3.5-8.7-1 0-2.2.6-2.7 1.2zm5.1 2.3c.6 1.7-2.1 4.8-3.5 4-.5-.4-.9-1.7-.9-3.1 0-2.7 3.4-3.5 4.4-.9zM210.7 388.5c-.3.9-.2 11.3.2 14 .1.5.5.5.9-.2s.7-3.9.5-7.3c-.2-5.8-.1-6 2.2-6 1.4 0 2.5-.5 2.5-1 0-1.3-5.8-.9-6.3.5zM224.7 388.8c-2.4 2.6-2.2 9.3.3 12 2.2 2.3 4 2.9 4 1.2 0-.5.6-.7 1.3-.4 1.6.6 3.7-3.6 3.7-7.4 0-6.1-5.7-9.4-9.3-5.4zm6.7 2.1c.7 1.4 1.1 3.2 1 3.8-.1.7-.2 1.9-.3 2.7 0 .7-1.3 2.2-2.8 3.1-1.6 1-2.5 1.5-2.1 1.1.3-.4-.3-1.7-1.3-2.7-1.4-1.4-1.9-2.9-1.5-5 .9-5.9 4.8-7.5 7-3zM236.7 387.7c-1 1-.8 12.6.2 14.2.7 1.2 1.3 1.2 2.4.3.7-.7 1.6-1 1.9-.7 1.4 1.4 2.7-2.3 1.9-5.2-.5-1.6-.6-4.3-.3-5.8.3-1.9.1-2.6-.7-2.1-.6.4-1.1.2-1.1-.3 0-1.2-3.3-1.5-4.3-.4zm4.6 1.9c1 1.1-1.2 4.4-2.6 3.8-2-.7-1.9-4.4.2-4.4 1 0 2.1.3 2.4.6zm.5 7.9c.1 1.2-.6 2.5-1.9 3.3-1.1.8-1.8.9-1.5.3.4-.5.2-1.2-.3-1.5-.5-.3-.7-1.5-.4-2.6.7-2.6 3.7-2.2 4.1.5zM249.1 388c-.2.8-.5 3.3-.6 5.5-.1 2.2-.3 4.8-.4 5.8 0 1-.5 1.6-1 1.3-.5-.3-1.1.1-1.5.9-.7 1.8.4 1.9 2.8.2 1.4-1 1.6-2.5 1.3-8.2-.1-3.9-.5-6.3-.6-5.5zM253 394.5c0 4.1.3 7.5.8 7.6.4 0 1.5.2 2.4.4.9.2 2.2-.3 2.8-1 .8-.9.4-1.2-1.7-1.1-2.3.1-2.7-.3-2.7-2.4 0-1.7.5-2.5 1.7-2.4.9.1 1.7-.4 1.7-1.2 0-.7-.8-1.1-1.8-.9-1.3.2-1.8-.3-1.8-2.1 0-1.6.6-2.4 1.7-2.4 1 0 2.1-.5 2.4-1 .4-.6-.7-1-2.4-1H253v7.5zM263.9 388.3c-2.5 1.9-3.2 6.8-1.6 10.6.9 2.2 1.7 2.9 2.2 2.1.4-.6.2-1.7-.4-2.3-1.7-1.7-1.3-7.3.6-8.8.9-.8 2.4-1.3 3.5-1.1 1 .2 1.8-.2 1.8-.7 0-1.5-4.1-1.3-6.1.2zM272.6 388.1c.3.5 1.1.9 1.8.9.9 0 1.2 1.8 1 6 0 3.3.3 6.3.7 6.6.5.3.9-2.4.9-6 0-5.1.3-6.6 1.4-6.6.8 0 1.7-.4 2-.9.3-.4-1.5-.8-3.9-.8s-4.2.4-3.9.8zM282.7 387.7c-.7 1.3-.2 13.1.6 13.9.4.4.7-2.7.7-6.9 0-7.2-.3-8.8-1.3-7zM286.8 387.7c-.2.5 0 4.2.3 8.3.3 4.1.7 6.1.8 4.5.2-1.7.3-3.6.2-4.3-.1-.7.9-1.2 2.4-1.2 1.4 0 2.4-.4 2-1-.3-.5-1.2-.7-1.9-.4-1.9.7-3.3-3.6-1.5-4.6.6-.5 1.8-.6 2.6-.3.7.3 1.3 0 1.3-.6 0-1.2-5.7-1.5-6.2-.4zM300 388c0 .6.7 4 1.6 7.5 1.7 6.8 3.7 8.4 4.7 3.7.4-1.5 1.3-4.8 2.1-7.5.8-2.6 1.1-4.7.6-4.7-.5 0-1.4 1.9-2 4.2-2.1 8.1-2.2 8.3-3 6.7-.4-.8-1.1-3.3-1.5-5.6-.6-3.9-2.5-7.1-2.5-4.3zM312.6 389.2c-2.4 3.3-2 9.3.6 11.8 2.8 2.6 3.4 2.5 6.3-.5 4.5-4.4 2.4-13.5-3-13.5-1.3 0-3.1 1-3.9 2.2zm6.8 1.7c2.1 4.2.3 10.1-3 10.1-2.3 0-4.6-4.5-3.8-7.6 1.3-5.7 4.6-6.9 6.8-2.5zM322.5 388c-.4.6-.3 1 .2.9 2.9-.5 3.3.4 3.3 6.8 0 3.6.3 6.3.8 5.9.4-.4.7-3.5.7-6.9 0-5.3.3-6.2 1.8-5.9.9.2 1.7-.2 1.7-.8 0-1.3-7.7-1.3-8.5 0zM332.9 391.2c-.2 6.5 0 11.1.6 11.6.3.3.5-.8.5-2.4 0-4 1.3-5.9 2.7-4.2.6.7 1.4 2.3 1.7 3.5.4 1.3 1.2 2.3 1.7 2.3.6 0 .6-.8-.1-2-.6-1.1-.8-2-.5-2 .3 0 .2-.8-.3-1.7-.7-1.1-.5-2.1.5-3.1 1.2-1.2 1.2-1.7 0-3.6-.8-1.1-2.6-2.2-4.1-2.4-2.4-.3-2.6-.1-2.7 4zm5.6.3c0 1.3-.8 2.1-2.1 2.3-1.7.2-2.1-.2-2.1-2.3 0-2.1.4-2.5 2.1-2.3 1.3.2 2.1 1 2.1 2.3zM342.9 392.5c-.1 3-.2 6.1-.3 6.7-.4 2.2 1.3 3.5 4 3.2 1.4-.1 2.8-.5 3.2-.8.5-.6-.2-.8-3.7-1-1.8-.1-2.4-3.8-.8-4.8.9-.5.9-1-.1-2-2.7-2.7-1.3-5.4 2.6-4.9.6.1 1.2-.3 1.2-.9 0-.5-1.3-1-3-1-3 0-3 .1-3.1 5.5zM356.2 388.2c-2 2-1.4 4.2 2 7.1 3.2 2.6 3.3 2.8 1.3 4.2-1.1.9-2.5 1.3-3.2 1.1-.7-.3-1.3-.1-1.3.3 0 1.4 3.3 2.3 4 1 .4-.6 1.1-.9 1.6-.7.5.1 1-1.2 1.2-2.9.3-2.7-.1-3.5-2.3-4.5-3.3-1.5-3.2-5.4.3-5.2 1.2.1 2.2-.3 2.2-.7 0-1.3-4.4-1.1-5.8.3zM366.1 393.9c-2.4 7.9-2.7 10.7-.7 7.1.8-1.4 1.3-2.7 1.1-3-.2-.3.7-.7 1.9-.8 1.6-.1 2.7.8 4 3.1l1.6 3.2-.5-3c-.3-1.7-.7-3.5-.8-4-.2-.6-.9-2.9-1.6-5.3-.6-2.3-1.6-4.2-2-4.2-.5 0-1.8 3.1-3 6.9zm4.1-.4c.6 2.8.6 2.7-1.5 1.9-.9-.3-1.3-1.3-1-2.5.7-2.7 2-2.4 2.5.6zM373 388c0 .6.3.9.8.9 2.8-.5 3.2.4 3.2 6.6 0 3.6.3 6.5.8 6.5.4 0 .7-2.4.7-5.3-.1-6.8.4-8.7 2.1-8 .8.3 1.4.1 1.4-.5 0-.5-2-1-4.5-1-2.5-.1-4.5.3-4.5.8zM384 394.3c0 4.2.4 7.7.8 7.7 1 0 .9-13.6-.1-14.6-.4-.4-.7 2.7-.7 6.9zM388.5 389c-.3 1.1-.3 2.9 0 4 .6 1.8 1.1 2.1 3.2 1.9 1.2-.1 2.1 3.5 1.1 4.8-.5.6-1.8 1-2.9.8-1-.2-1.9 0-1.9.5 0 2.7 5.6 1.8 6.5-1.1.9-2.8-.2-5.5-2.9-6.7-3-1.4-2.6-5.3.5-4.5 1 .3 1.9 0 1.9-.6 0-2-4.8-1.2-5.5.9zM397.9 387.2c-.6 1.4-.4 14 .3 14.4.4.3.8-1.1.8-3.2 0-3.1.3-3.6 2-3.1 1.2.3 2 0 2-.8s-.8-1.1-2.1-.8c-1.8.5-2 .2-1.7-2.3.2-2.4.7-2.8 2.6-2.6 1.2.2 2.2-.2 2.2-.7 0-.9-5.7-1.7-6.1-.9zM406.3 393.9c-1.2 4.1-1.7 7.5-1.2 8.3.6.9.9.7.9-.8 0-4.7 4.6-5.3 6.5-.9 1.9 4.3 1.8.8-.1-5.6-.9-3-1.8-6-2-6.7-.8-2.8-2.2-.8-4.1 5.7zm3.3 1.3c-2.1 1.5-2.5.8-1.4-2.5 1.2-3.2 1.2-3.2 1.8-.7.4 1.4.2 2.8-.4 3.2zM416.4 390.6c-1.5 2.8-1.6 3.8-.5 7.4.7 2.3 1.5 3.9 1.8 3.6.4-.3 1.2-.1 1.8.4 1.3 1.1 4.5.3 4.5-1 0-.5-.8-.6-1.9-.3-2.4.6-5.1-2.2-5.1-5.5 0-3.8 2.6-7.2 5-6.7 1.1.2 2 0 2-.6 0-.5-1.3-.8-3-.7-2.1.2-3.4 1.1-4.6 3.4zM426 388.2c0 .4.8.8 1.9.8 1.7 0 1.8.7 1.5 6.5-.2 3.6.1 6.5.6 6.5s1-3 1.2-6.8c.3-5.7.6-6.7 2.1-6.4.9.2 1.7-.2 1.7-.8 0-.6-1.9-.9-4.5-.8-2.5 0-4.5.5-4.5 1zM436.3 394c-.1 3.9.3 7.2.7 7.5.5.3.8-2.8.8-7-.1-9.5-1.4-9.9-1.5-.5zM442 388.5c-.6.8-1.4 3.2-1.7 5.4-.5 3.3-.1 4.4 2 6.5 3.2 3.2 4 3.2 6.7.4 2.6-2.9 2.8-9.8.2-12.1-2.3-2.1-5.6-2.2-7.2-.2zm7.4 3.9c.7 2.8 0 5.3-2.2 7.8-1.3 1.6-1.5 1.6-3.2 0-4.3-4-1.7-13.7 3-11.2 1 .5 2 2 2.4 3.4zM453.9 387.2c-.6 2-.4 14 .2 14.4.5.3.9-2.1.9-5.3v-5.8l2.9 5.4c4.1 8 5.1 7.7 5.1-1.4 0-4.3-.4-7.4-.9-7.1-.5.4-.8 3.1-.7 6.1 0 3 0 5.5-.1 5.5-.2 0-1.4-2.4-2.8-5.4-2.1-4.6-4.2-7.6-4.6-6.4z"/><path d="M213.5 393.9c-.3.5-.1 1.2.5 1.6.5.3 1-.1 1-.9 0-1.8-.6-2.1-1.5-.7zM347 394.6c0 .8.5 1.2 1 .9.6-.4.8-1.1.5-1.6-.9-1.4-1.5-1.1-1.5.7zM294 401c-.6 1.1-.9 2.6-.7 3.3.3.7 1-.1 1.6-1.7 1.4-3.5.7-4.7-.9-1.6zM213.5 401.1c-.4.6-.4 1.3 0 1.7.4.4 1 .1 1.2-.6.3-.6 1-.9 1.5-.6.7.4.8.2.4-.4-.9-1.5-2.3-1.5-3.1-.1zM266.3 400.7c-2.2.8-1.4 2.3 1 2.1 1.3-.1 2.4-.7 2.4-1.3 0-1.2-1.3-1.5-3.4-.8z"/></svg>